<?xml version="1.0" encoding="utf-8"?>
<!-- Generator: Adobe Illustrator 27.5.0, SVG Export Plug-In . SVG Version: 6.00 Build 0)  -->
<svg version="1.1" id="svg1574" xmlns:svg="http://www.w3.org/2000/svg"
	 xmlns="http://www.w3.org/2000/svg" xmlns:xlink="http://www.w3.org/1999/xlink" x="0px" y="0px" viewBox="0 0 210.9 234.2"
	 style="enable-background:new 0 0 210.9 234.2;" xml:space="preserve">
<style type="text/css">
	.st0{fill:#008000;}
</style>
<g>
	<path class="st0" d="M105.5,190.4v-10.6c0.5-0.5,51.6-28.8,64.8-98.2c1.8-13.1,2.1-30.9-6.8-41.1c-5.1-5.8-13-8.8-23.4-8.8
		c-29.7,0-34.6,44.5-34.6,45.9l0,0c0-0.4-4.4-22.6,0.2-33c4.5-10,14.1-21.9,34.4-21.9c13.2,0,23.3,4,30.2,11.9
		c8.9,10.3,11.9,26.5,8.9,48.3l0,0.2C165.4,155.5,107.8,188.1,105.5,190.4z"/>
</g>
<g>
	<path class="st0" d="M105.5,190.4c-2.3-2.3-60-34.9-73.7-107.2l0-0.2c-3-21.8-0.1-38.1,8.9-48.3c6.9-7.9,17-11.9,30.2-11.9
		c20.3,0,29.9,11.9,34.4,21.9c4.7,10.4,0.2,32.5,0.2,33h0c0-1.4-5-45.9-34.6-45.9c-10.4,0-18.3,3-23.4,8.8
		c-8.9,10.2-8.6,27.9-6.8,41.1c13.2,69.4,64.3,97.6,64.8,98.2V190.4z"/>
</g>
</svg>
