<?xml version="1.0" encoding="UTF-8" standalone="no"?>
<!-- Created with Inkscape (http://www.inkscape.org/) -->

<svg
   width="168.5265mm"
   height="138.7861mm"
   viewBox="0 0 168.5265 138.7861"
   version="1.1"
   id="svg5"
   inkscape:version="1.2.2 (732a01da63, 2022-12-09)"
   sodipodi:docname="ship3.svg"
   inkscape:export-filename="ship.svg"
   inkscape:export-xdpi="96"
   inkscape:export-ydpi="96"
   xml:space="preserve"
   xmlns:inkscape="http://www.inkscape.org/namespaces/inkscape"
   xmlns:sodipodi="http://sodipodi.sourceforge.net/DTD/sodipodi-0.dtd"
   xmlns="http://www.w3.org/2000/svg"
   xmlns:svg="http://www.w3.org/2000/svg"><sodipodi:namedview
     id="namedview7"
     pagecolor="#ffffff"
     bordercolor="#000000"
     borderopacity="0.25"
     inkscape:showpageshadow="2"
     inkscape:pageopacity="0.0"
     inkscape:pagecheckerboard="0"
     inkscape:deskcolor="#d1d1d1"
     inkscape:document-units="mm"
     showgrid="true"
     inkscape:zoom="1.4912879"
     inkscape:cx="533.09627"
     inkscape:cy="641.39192"
     inkscape:window-width="1918"
     inkscape:window-height="1008"
     inkscape:window-x="1039"
     inkscape:window-y="0"
     inkscape:window-maximized="0"
     inkscape:current-layer="layer1"><inkscape:grid
       type="xygrid"
       id="grid122" /></sodipodi:namedview><defs
     id="defs2" /><g
     inkscape:label="Warstwa 1"
     inkscape:groupmode="layer"
     id="layer1"
     transform="translate(-12.828206,-64.253981)"><path
       id="path834"
       style="fill:#008000;stroke-width:0.139457"
       inkscape:transform-center-y="4.9886104"
       d="m 137.41774,94.096982 -38.677491,35.099798 -38.677242,35.10038 42.526223,-9.87542 12.71074,41.76649 11.05921,-51.04566 z m -2.31643,4.31189 c 0.0117,-1.9e-4 0.0158,0.007 0.0125,0.0207 -0.0729,0.30923 -4.59981,21.187368 -10.0593,46.396138 -5.45951,25.20877 -9.96635,45.83824 -10.01552,45.84278 -0.0491,0.005 -2.64792,-8.42427 -5.77498,-18.73056 -3.12707,-10.30629 -5.77473,-18.79223 -5.8837,-18.85748 -0.10897,-0.0652 -8.582251,1.83129 -18.829581,4.21448 -10.247322,2.38318 -18.877202,4.37805 -19.177262,4.43325 l -0.54547,0.10039 0.30484,-0.29545 c 0.16765,-0.16249 16.011542,-14.55382 35.208883,-31.9807 26.649,-24.1913 34.39641,-31.135998 34.75959,-31.143578 z"
       inkscape:transform-center-x="12.08634" /><g
       id="g857"
       transform="translate(7.0967741,12.419355)"><path
         id="path847"
         style="fill:#008000;stroke-width:0.194212"
         d="m 7.7424914,157.87057 c 3.2914426,7.0406 25.6469626,13.12672 43.1119836,10.7643 16.427292,-2.22288 22.654562,-11.78285 25.095594,-19.05993 l -0.884292,-0.41478 c -0.0874,-0.0389 -0.17215,-0.0775 -0.25537,-0.11586 -3.3619,6.91283 -9.5678,15.717 -25.102175,17.819 -15.754937,2.13116 -37.000712,-3.08394 -41.9657406,-8.99274 z"
         sodipodi:nodetypes="scccccss" /><path
         id="path851"
         style="fill:#008000;stroke-width:0.194212"
         d="m 30.112164,172.76327 c 3.291458,7.04061 25.646975,13.12671 43.111983,10.76428 16.427292,-2.22287 22.654552,-11.78282 25.095602,-19.05991 l -0.88428,-0.41477 c -0.0874,-0.0389 -0.17217,-0.0775 -0.25538,-0.11586 -3.36191,6.91281 -9.56782,15.71698 -25.102182,17.81898 -15.75493,2.13116 -37.000702,-3.08392 -41.965743,-8.99273 z"
         sodipodi:nodetypes="scccccss" /><path
         id="path853"
         style="fill:#008000;stroke-width:0.194212"
         d="m 16.688552,163.74498 c 3.291458,7.0406 25.646973,13.1267 43.111985,10.76428 16.427292,-2.22287 26.202952,-19.41187 28.643992,-26.68896 l -0.88429,-0.41477 c -0.0874,-0.039 -0.17215,-0.0775 -0.25538,-0.11586 -3.36191,6.91281 -13.116202,23.34601 -28.650566,25.44801 -15.75492,2.13116 -37.000688,-3.08392 -41.965741,-8.99272 z"
         sodipodi:nodetypes="scccccss" /><path
         id="path855"
         style="fill:#008000;stroke-width:0.194212"
         d="m 24.239143,168.71819 c 3.291443,7.04061 25.646964,13.12673 43.111984,10.7643 16.427302,-2.22287 26.202952,-19.41187 28.643992,-26.68895 l -0.8843,-0.41478 c -0.0873,-0.039 -0.17213,-0.0775 -0.25537,-0.11586 -3.36189,6.91282 -13.11619,23.34602 -28.650562,25.44803 -15.754931,2.13116 -37.000703,-3.08393 -41.965744,-8.99274 z"
         sodipodi:nodetypes="ccccccc" /><path
         id="path1632"
         style="fill:#008000;stroke-width:0.0918526"
         d="m 154.65588,96.369082 -8.05594,12.474748 0.68584,11.29519 14.83224,4.91125 4.57666,-1.5432 5.73847,-9.40826 -4.56358,-13.31631 z m 0.47667,1.393578 11.97673,4.00044 4.13624,12.06966 -5.20134,8.5274 -4.14808,1.39861 -13.44368,-4.45145 -0.6218,-10.23763 z" /><path
         id="path1561"
         style="fill:#008000;stroke-width:0.0842636"
         d="m 145.91142,146.72757 -12.58326,8.56083 1.5332,4.11608 -7.86121,22.82049 10.70692,8.39576 21.22474,-4.7716 5.17136,-5.17135 10.15476,-10.02673 -1.93905,-13.57995 -14.98331,-7.23614 z m 0.1659,1.32436 10.71334,2.91401 14.05081,6.78586 1.81841,12.73468 -9.52295,9.40281 -4.84944,4.84944 -19.90384,4.47453 -10.04055,-7.87306 7.37192,-21.40035 -1.43774,-3.85983 z" /><path
         id="path1392"
         style="fill:#008000;stroke-width:0.105742"
         inkscape:transform-center-x="-1.2273574"
         inkscape:transform-center-y="1.5001284"
         d="M 63.583099,51.834629 46.55139,52.616956 34.377213,58.588492 18.496692,74.661292 5.7314319,84.240243 16.584867,117.1816 l 18.777689,3.24062 24.992308,10.23799 9.296219,-11.56038 7.198309,-24.352494 3.999821,-2.476681 -9.091755,-24.644518 z m -0.724499,1.27634 7.899056,15.259699 8.785888,23.815104 -3.865161,2.393245 L 68.722329,118.1118 59.739208,129.28308 35.588084,119.38959 17.442576,116.25822 6.954488,84.425707 19.289964,75.169142 34.635992,59.637446 46.400421,53.867067 Z" /></g></g></svg>
