<?xml version="1.0" encoding="UTF-8" standalone="no"?>
<!-- Created with Inkscape (http://www.inkscape.org/) -->

<svg
   width="210mm"
   height="297mm"
   viewBox="0 0 210 297"
   version="1.1"
   id="svg5"
   inkscape:version="1.2.2 (732a01da63, 2022-12-09)"
   sodipodi:docname="ship3.svg"
   inkscape:export-filename="ship.svg"
   inkscape:export-xdpi="96"
   inkscape:export-ydpi="96"
   xmlns:inkscape="http://www.inkscape.org/namespaces/inkscape"
   xmlns:sodipodi="http://sodipodi.sourceforge.net/DTD/sodipodi-0.dtd"
   xmlns="http://www.w3.org/2000/svg"
   xmlns:svg="http://www.w3.org/2000/svg">
  <sodipodi:namedview
     id="namedview7"
     pagecolor="#ffffff"
     bordercolor="#000000"
     borderopacity="0.25"
     inkscape:showpageshadow="2"
     inkscape:pageopacity="0.0"
     inkscape:pagecheckerboard="0"
     inkscape:deskcolor="#d1d1d1"
     inkscape:document-units="mm"
     showgrid="true"
     inkscape:zoom="1.4912879"
     inkscape:cx="533.09627"
     inkscape:cy="641.39192"
     inkscape:window-width="1918"
     inkscape:window-height="1008"
     inkscape:window-x="1039"
     inkscape:window-y="0"
     inkscape:window-maximized="0"
     inkscape:current-layer="layer1">
    <inkscape:grid
       type="xygrid"
       id="grid122" />
  </sodipodi:namedview>
  <defs
     id="defs2" />
  <g
     inkscape:label="Warstwa 1"
     inkscape:groupmode="layer"
     id="layer1">
    <path
       id="path834"
       style="fill:#008000;stroke-width:0.139457"
       inkscape:transform-center-y="-3.4458046"
       d="m 105.86382,119.6888 -15.945794,49.73606 -15.94528,49.73644 31.891074,-29.81547 31.89108,29.81547 -15.94528,-49.73644 z m 0.14986,4.89242 c 0.01,-0.006 0.0171,-0.002 0.0212,0.0117 0.0915,0.30425 6.61014,20.64871 14.48646,45.20989 7.87631,24.56119 14.28801,44.68025 14.2477,44.70877 -0.0403,0.0285 -6.5053,-5.97167 -14.36656,-13.33365 -7.86127,-7.36197 -14.39718,-13.38718 -14.52418,-13.3892 -0.12698,-0.002 -6.516799,5.87707 -14.199648,13.06463 -7.682853,7.18756 -14.159112,13.2301 -14.39137,13.42794 l -0.422196,0.35967 0.116272,-0.40828 c 0.06394,-0.22455 6.589492,-20.60975 14.50144,-45.30054 10.983062,-34.27478 14.220162,-44.16277 14.530892,-44.35093 z" />
    <path
       style="fill:#008000;stroke-width:0.16764"
       d="M 460.25654,771.71836 C 427.24816,740.84661 400.195,715.58451 400.1384,715.58034 c -0.0566,-0.004 -27.09941,25.23177 -60.09515,56.07985 -32.99574,30.84808 -60.01353,56.02358 -60.03953,55.94558 -0.026,-0.078 14.05188,-44.1203 31.28417,-97.87177 l 31.33145,-97.72993 2.55266,-0.0464 2.55265,-0.0464 -0.0976,0.38167 c -0.0537,0.20991 -9.22035,28.85956 -20.37043,63.66588 -27.7973,86.7727 -36.5405,114.14622 -36.67652,114.82818 l -0.11593,0.5813 0.70554,-0.5588 c 0.38804,-0.30735 1.28715,-1.09957 1.99802,-1.76049 8.51903,-7.9206 17.48035,-16.28076 39.01177,-36.39473 43.12957,-40.29028 61.66225,-57.43622 67.02029,-62.00538 l 0.95765,-0.81666 0.95725,0.81666 c 5.06535,4.3214 23.42643,21.31728 64.0872,59.32211 22.05711,20.61636 40.7014,37.91163 43.71156,40.54878 0.20709,0.18142 0.41775,0.28866 0.46812,0.23828 0.10625,-0.10625 -1.37834,-4.86791 -9.08372,-29.13504 -9.2373,-29.09166 -47.40696,-148.48967 -47.78355,-149.47101 -0.0733,-0.19113 0.36386,-0.23181 2.49124,-0.23181 h 2.58018 l 31.39314,97.92169 c 17.26621,53.85693 31.37057,97.94085 31.34301,97.96429 -0.0276,0.0234 -27.05699,-25.21611 -60.06537,-56.08786 z"
       id="path1520"
       transform="scale(0.26458333)" />
  </g>
</svg>
