<svg width="242" height="377" viewBox="0 0 242 377" fill="none" xmlns="http://www.w3.org/2000/svg">
<path d="M121.115 0.367096L60.8477 188.346L0.582031 376.326L121.115 263.638L241.648 376.326L181.383 188.346L121.115 0.367096ZM121.682 18.8582C121.719 18.8355 121.746 18.8506 121.762 18.9024C122.108 20.0523 146.745 96.9447 176.514 189.774C206.282 282.604 230.516 358.645 230.363 358.752C230.211 358.86 205.776 336.182 176.064 308.358C146.353 280.533 121.65 257.76 121.17 257.753C120.69 257.745 96.5395 279.965 67.502 307.131C38.4644 334.296 13.9872 357.134 13.1094 357.882L11.5137 359.241L11.9532 357.698C12.1948 356.85 36.8583 279.803 66.7617 186.484C108.273 56.9412 120.507 19.5693 121.682 18.8582Z" fill="#008000"/>
<path d="M181.257 319.718C148.248 288.847 121.195 263.584 121.138 263.58C121.082 263.576 94.039 288.812 61.0432 319.66C28.0475 350.508 1.02973 375.684 1.00373 375.606C0.977729 375.528 15.0556 331.485 32.2879 277.734L63.6194 180.004L66.172 179.958L68.7246 179.911L68.6271 180.293C68.5733 180.503 59.4067 209.152 48.2566 243.959C20.4593 330.732 11.7161 358.105 11.5801 358.787L11.4642 359.368L12.1697 358.81C12.5578 358.502 13.4569 357.71 14.1677 357.049C22.6868 349.128 31.6481 340.768 53.1795 320.654C96.3091 280.364 114.842 263.218 120.2 258.649L121.157 257.832L122.115 258.649C127.18 262.97 145.541 279.966 186.202 317.971C208.259 338.587 226.903 355.883 229.913 358.52C230.121 358.701 230.331 358.808 230.382 358.758C230.488 358.652 229.003 353.89 221.298 329.623C212.061 300.531 173.891 181.133 173.514 180.152C173.441 179.961 173.878 179.92 176.006 179.92H178.586L209.979 277.842C227.245 331.699 241.349 375.783 241.322 375.806C241.294 375.83 214.265 350.59 181.257 319.718Z" fill="#008000"/>
</svg>
